<?xml version="1.0" encoding="utf-8"?>
<!-- Generator: Adobe Illustrator 16.0.4, SVG Export Plug-In . SVG Version: 6.00 Build 0)  -->
<!DOCTYPE svg PUBLIC "-//W3C//DTD SVG 1.1//EN" "http://www.w3.org/Graphics/SVG/1.1/DTD/svg11.dtd">
<svg version="1.1" id="Layer_1" xmlns="http://www.w3.org/2000/svg" xmlns:xlink="http://www.w3.org/1999/xlink" x="0px" y="0px"
	 width="694.882px" height="263px" viewBox="47.822 100.5 694.882 263" enable-background="new 47.822 100.5 694.882 263"
	 xml:space="preserve">
<g enable-background="new    ">
	<rect x="78.492" y="110.939" fill="#F7931E" width="79.054" height="13.044"/>
	<text transform="matrix(1 0 0 1 78.4917 120.9834)" font-family="'MyriadPro-Regular'" font-size="12">Manuel, b. 1988</text>
</g>
<g enable-background="new    ">
	<rect x="211.627" y="109.837" fill="#F7931E" width="65.302" height="13.044"/>
	<text transform="matrix(1 0 0 1 211.6274 119.8809)" font-family="'MyriadPro-Regular'" font-size="12">Erica, b. 1990</text>
</g>
<line fill="none" stroke="#000000" stroke-miterlimit="10" x1="160.695" y1="115.051" x2="206.458" y2="115.051"/>
<line fill="none" stroke="#000000" stroke-miterlimit="10" x1="181.034" y1="115.051" x2="181.034" y2="162.508"/>
<line fill="none" stroke="#000000" stroke-miterlimit="10" x1="103.068" y1="162.508" x2="680.186" y2="162.508"/>
<line fill="none" stroke="#000000" stroke-miterlimit="10" x1="103.068" y1="162.508" x2="103.068" y2="228.61"/>
<line fill="none" stroke="#000000" stroke-miterlimit="10" x1="364.085" y1="163.356" x2="364.085" y2="228.61"/>
<line fill="none" stroke="#000000" stroke-miterlimit="10" x1="680.188" y1="162.508" x2="680.188" y2="227.762"/>
<g>
	<rect x="72.492" y="231.007" fill="#F7931E" width="81.418" height="13.044"/>
</g>
<g>
	<text transform="matrix(1 0 0 1 72.4917 241.0508)" font-family="'MyriadPro-Regular'" font-size="12">Gautam, b. 2015</text>
</g>
<text transform="matrix(1 0 0 1 329.6104 241.0508)" font-family="'MyriadPro-Regular'" font-size="12">Amelia, b. 2019</text>
<g enable-background="new    ">
	<rect x="642.729" y="231.007" fill="#F7931E" width="72.321" height="13.044"/>
	<text transform="matrix(1 0 0 1 642.7295 241.0508)" font-family="'MyriadPro-Regular'" font-size="12">Calvin, b. 2021</text>
</g>
<line fill="none" stroke="#000000" stroke-miterlimit="10" x1="411.678" y1="237.559" x2="457.439" y2="237.559"/>
<text transform="matrix(1 0 0 1 462.9824 241.0508)" font-family="'MyriadPro-Regular'" font-size="12">Ray, b. 2018, Colin, b. 2022</text>
<line fill="none" stroke="#000000" stroke-miterlimit="10" x1="158.763" y1="239.762" x2="204.525" y2="239.762"/>
<g enable-background="new    ">
	<rect x="210.067" y="231.007" fill="#F7931E" width="70.918" height="13.044"/>
	<text transform="matrix(1 0 0 1 210.0674 241.0508)" font-family="'MyriadPro-Regular'" font-size="12">Carrie, b. 2018</text>
</g>
<line fill="none" stroke="#000000" stroke-miterlimit="10" x1="181.627" y1="239.983" x2="181.627" y2="287.44"/>
<line fill="none" stroke="#000000" stroke-miterlimit="10" x1="157.508" y1="288.271" x2="231.882" y2="288.271"/>
<line fill="none" stroke="#000000" stroke-miterlimit="10" x1="231.203" y1="288.458" x2="231.203" y2="335.916"/>
<line fill="none" stroke="#000000" stroke-miterlimit="10" x1="157.101" y1="287.848" x2="157.101" y2="335.306"/>
<g enable-background="new    ">
	<rect x="98.746" y="339.989" fill="#F7931E" width="91.018" height="13.044"/>
	<text transform="matrix(1 0 0 1 98.7456 350.0332)" font-family="'MyriadPro-Regular'" font-size="12">Francesca, b. 2050</text>
</g>
<text transform="matrix(1 0 0 1 197.8975 350.0332)" font-family="'MyriadPro-Regular'" font-size="12">Emilia, b. 2054</text>
<line fill="none" stroke="#000000" stroke-miterlimit="10" x1="545.066" y1="245.56" x2="545.066" y2="332.035"/>
<text transform="matrix(1 0 0 1 412.9824 348.3203)" font-family="'MyriadPro-Regular'" font-size="12">Andrew, b. 2046</text>
<text transform="matrix(1 0 0 1 501.8477 347.916)" font-family="'MyriadPro-Regular'" font-size="12">Graham, b. 2048</text>
<line fill="none" stroke="#000000" stroke-miterlimit="10" x1="472.338" y1="245.916" x2="472.338" y2="332.391"/>
</svg>
