<?xml version="1.0" encoding="utf-8"?>
<!-- Generator: Adobe Illustrator 16.0.4, SVG Export Plug-In . SVG Version: 6.00 Build 0)  -->
<!DOCTYPE svg PUBLIC "-//W3C//DTD SVG 1.1//EN" "http://www.w3.org/Graphics/SVG/1.1/DTD/svg11.dtd">
<svg version="1.1" id="Layer_1" xmlns="http://www.w3.org/2000/svg" xmlns:xlink="http://www.w3.org/1999/xlink" x="0px" y="0px"
	 width="721.941px" height="464px" viewBox="0 0 721.941 464" enable-background="new 0 0 721.941 464" xml:space="preserve">
<g enable-background="new    ">
	<rect x="78.492" y="110.939" fill="#F7931E" width="79.054" height="13.044"/>
	<text transform="matrix(1 0 0 1 78.4917 120.9834)" font-family="'MyriadPro-Regular'" font-size="12">Manuel, b. 1988</text>
</g>
<g enable-background="new    ">
	<rect x="211.627" y="109.837" fill="#F7931E" width="65.302" height="13.044"/>
	<text transform="matrix(1 0 0 1 211.6274 119.8809)" font-family="'MyriadPro-Regular'" font-size="12">Erica, b. 1990</text>
</g>
<line fill="none" stroke="#000000" stroke-miterlimit="10" x1="160.695" y1="115.051" x2="206.458" y2="115.051"/>
<line fill="none" stroke="#000000" stroke-miterlimit="10" x1="181.034" y1="115.051" x2="181.034" y2="162.508"/>
<line fill="none" stroke="#000000" stroke-miterlimit="10" x1="103.068" y1="162.508" x2="680.185" y2="162.508"/>
<line fill="none" stroke="#000000" stroke-miterlimit="10" x1="103.068" y1="162.508" x2="103.068" y2="228.609"/>
<line fill="none" stroke="#000000" stroke-miterlimit="10" x1="364.085" y1="163.355" x2="364.085" y2="228.609"/>
<line fill="none" stroke="#000000" stroke-miterlimit="10" x1="680.188" y1="162.508" x2="680.188" y2="227.762"/>
<g>
	<rect x="72.492" y="231.007" fill="#F7931E" width="81.418" height="13.044"/>
</g>
<g>
	<text transform="matrix(1 0 0 1 72.4917 241.0508)" font-family="'MyriadPro-Regular'" font-size="12">Gautam, b. 2015</text>
</g>
<text transform="matrix(1 0 0 1 329.6104 241.0508)" font-family="'MyriadPro-Regular'" font-size="12">Amelia, b. 2019</text>
<g enable-background="new    ">
	<rect x="642.729" y="231.007" fill="#F7931E" width="72.321" height="13.044"/>
	<text transform="matrix(1 0 0 1 642.7305 241.0508)" font-family="'MyriadPro-Regular'" font-size="12">Calvin, b. 2021</text>
</g>
<line fill="none" stroke="#000000" stroke-miterlimit="10" x1="411.677" y1="237.559" x2="457.439" y2="237.559"/>
<text transform="matrix(1 0 0 1 462.9824 241.0508)" font-family="'MyriadPro-Regular'" font-size="12">Ray, b. 2018, Colin, b. 2022</text>
<line fill="none" stroke="#000000" stroke-miterlimit="10" x1="158.763" y1="239.762" x2="204.525" y2="239.762"/>
<g enable-background="new    ">
	<rect x="210.067" y="231.007" fill="#F7931E" width="70.918" height="13.044"/>
	<text transform="matrix(1 0 0 1 210.0674 241.0508)" font-family="'MyriadPro-Regular'" font-size="12">Carrie, b. 2018</text>
</g>
<line fill="none" stroke="#000000" stroke-miterlimit="10" x1="181.627" y1="239.982" x2="181.627" y2="287.439"/>
<line fill="none" stroke="#000000" stroke-miterlimit="10" x1="157.508" y1="288.271" x2="231.882" y2="288.271"/>
<line fill="none" stroke="#000000" stroke-miterlimit="10" x1="231.203" y1="288.458" x2="231.203" y2="335.916"/>
<line fill="none" stroke="#000000" stroke-miterlimit="10" x1="157.101" y1="287.848" x2="157.101" y2="335.307"/>
<g enable-background="new    ">
	<rect x="98.746" y="339.989" fill="#F7931E" width="91.018" height="13.044"/>
	<text transform="matrix(1 0 0 1 98.7456 350.0332)" font-family="'MyriadPro-Regular'" font-size="12">Francesca, b. 2050</text>
</g>
<text transform="matrix(1 0 0 1 197.8975 350.0332)" font-family="'MyriadPro-Regular'" font-size="12">Emilia, b. 2054</text>
<line fill="none" stroke="#000000" stroke-miterlimit="10" x1="545.066" y1="245.561" x2="545.066" y2="332.035"/>
<text transform="matrix(1 0 0 1 412.9824 348.3203)" font-family="'MyriadPro-Regular'" font-size="12">Andrew, b. 2046</text>
<text transform="matrix(1 0 0 1 501.8477 347.916)" font-family="'MyriadPro-Regular'" font-size="12">Graham, b. 2048</text>
<line fill="none" stroke="#000000" stroke-miterlimit="10" x1="472.337" y1="245.916" x2="472.337" y2="332.391"/>
<g id="_x35_vhkZA.tif">
	
		<image overflow="visible" enable-background="new    " width="821" height="553" id="Layer_0_1_" xlink:href="20F70F88A49A5C5C.png"  transform="matrix(0.1064 0 0 0.1055 627.7207 263.7109)">
	</image>
</g>
<g id="n1t2lb.tif">
	
		<image overflow="visible" enable-background="new    " width="204" height="306" id="Layer_0_2_" xlink:href="20F70F88A49A5C70.png"  transform="matrix(0.2318 0 0 0.2302 253.2856 246.5605)">
	</image>
</g>
<g id="stRFH2.tif">
	
		<image overflow="visible" enable-background="new    " width="1188" height="1337" id="Layer_0_3_" xlink:href="20F70F88A49A5C71.png"  transform="matrix(0.0465 0 0 0.0463 285.5991 53.1621)">
	</image>
</g>
<g id="LPNYMP.tif">
	
		<image overflow="visible" enable-background="new    " width="1251" height="1628" id="Layer_0_4_" xlink:href="20F70F88A49A5C72.png"  transform="matrix(0.041 0 0 0.042 52.8813 255.0059)">
	</image>
</g>
<g id="ulBW78.tif">
	
		<image overflow="visible" enable-background="new    " width="284" height="427" id="Layer_0_5_" xlink:href="20F70F88A49A5C73.png"  transform="matrix(0.2031 0 0 0.2026 13.9458 47)">
	</image>
</g>
<g id="HEAq6o.tif">
	
		<image overflow="visible" enable-background="new    " width="706" height="525" id="Layer_0_6_" xlink:href="20F70F88A49A5C74.png"  transform="matrix(0.1152 0 0 0.1162 103.5884 369)">
	</image>
</g>
<g id="hCBAJE.tif">
	
		<image overflow="visible" enable-background="new    " width="1246" height="1313" id="Layer_0_7_" xlink:href="20F70F88A49A5C75.png"  transform="matrix(0.0586 0 0 0.0586 216.7524 361.0039)">
	</image>
</g>
<g id="TEb8oc.tif">
	
		<image overflow="visible" enable-background="new    " width="331" height="331" id="Layer_0_8_" xlink:href="20F70F88A49A5C76.png"  transform="matrix(0.1718 0 0 0.1718 348.8477 253.3496)">
	</image>
</g>
<g id="bdfMQT_1_">
	
		<image overflow="visible" enable-background="new    " width="363" height="432" id="bdfMQT_2_" xlink:href="20F70F88A49A5C6C.jpeg"  transform="matrix(0.1254 0 0 0.1254 479.0908 247.4189)">
	</image>
</g>
<g id="X6v7f3_1_">
	
		<image overflow="visible" enable-background="new    " width="1210" height="1233" id="X6v7f3_2_" xlink:href="C3B53EBFCA4F59E6.jpeg"  transform="matrix(0.0431 0 0 0.0431 553.1191 247.9473)">
	</image>
</g>
<g id="h0celq_1_">
	
		<image overflow="visible" enable-background="new    " width="610" height="581" id="h0celq_2_" xlink:href="C3B53EBFCA4F59E3.jpeg"  transform="matrix(0.1327 0 0 0.1327 516.1016 360.9434)">
	</image>
</g>
<g id="B8oaGc.tif">
	
		<image overflow="visible" enable-background="new    " width="655" height="645" id="Layer_0_9_" xlink:href="C3B53EBFCA4F59E3.png"  transform="matrix(0.1023 0 0 0.1023 423.9336 369.2568)">
	</image>
</g>
</svg>
