<?xml version="1.0" encoding="utf-8"?>
<!-- Generator: Adobe Illustrator 16.0.4, SVG Export Plug-In . SVG Version: 6.00 Build 0)  -->
<!DOCTYPE svg PUBLIC "-//W3C//DTD SVG 1.1//EN" "http://www.w3.org/Graphics/SVG/1.1/DTD/svg11.dtd">
<svg version="1.1" id="Layer_1" xmlns="http://www.w3.org/2000/svg" xmlns:xlink="http://www.w3.org/1999/xlink" x="0px" y="0px"
	 width="794px" height="374.742px" viewBox="0 0 794 374.742" enable-background="new 0 0 794 374.742" xml:space="preserve">
<rect x="1" y="1.524" fill="none" width="27.913" height="14.783"/>
<text transform="matrix(1 0 0 1 0.9995 10.0439)" font-family="'MyriadPro-Regular'" font-size="12">1980</text>
<rect x="96.51" y="1.524" fill="none" width="27.913" height="14.783"/>
<text transform="matrix(1 0 0 1 96.5103 10.0439)" font-family="'MyriadPro-Regular'" font-size="12">1990</text>
<rect x="192.021" y="1.524" fill="none" width="27.913" height="14.782"/>
<text transform="matrix(1 0 0 1 192.021 10.0439)" font-family="'MyriadPro-Regular'" font-size="12">2000</text>
<rect x="287.532" y="1.524" fill="none" width="27.913" height="14.782"/>
<text transform="matrix(1 0 0 1 287.5322 10.0439)" font-family="'MyriadPro-Regular'" font-size="12">2010</text>
<rect x="383.043" y="1.524" fill="none" width="27.913" height="14.782"/>
<text transform="matrix(1 0 0 1 383.043 10.0439)" font-family="'MyriadPro-Regular'" font-size="12">2020</text>
<rect x="478.554" y="1.524" fill="none" width="27.912" height="14.782"/>
<text transform="matrix(1 0 0 1 478.5527 10.0439)" font-family="'MyriadPro-Regular'" font-size="12">2030</text>
<rect x="574.065" y="1.524" fill="none" width="27.912" height="14.782"/>
<text transform="matrix(1 0 0 1 574.0645 10.0439)" font-family="'MyriadPro-Regular'" font-size="12">2040</text>
<rect x="669.575" y="1.524" fill="none" width="27.913" height="14.782"/>
<text transform="matrix(1 0 0 1 669.5762 10.0439)" font-family="'MyriadPro-Regular'" font-size="12">2050</text>
<rect x="765.086" y="1.524" fill="none" width="27.913" height="14.782"/>
<text transform="matrix(1 0 0 1 765.0859 10.0439)" font-family="'MyriadPro-Regular'" font-size="12">2060</text>
<rect x="52.267" y="27.523" fill="none" width="44.348" height="32.174"/>
<text transform="matrix(1 0 0 1 52.2666 36.0435)"><tspan x="0" y="0" font-family="'MyriadPro-Regular'" font-size="12">Manuel, </tspan><tspan x="0" y="14.4" font-family="'MyriadPro-Regular'" font-size="12">b.1988</tspan></text>
<rect x="70.348" y="70.306" fill="none" width="44.349" height="28.695"/>
<text transform="matrix(1 0 0 1 70.3477 78.8262)"><tspan x="0" y="0" font-family="'MyriadPro-Regular'" font-size="12">Erica,</tspan><tspan x="0" y="14.4" font-family="'MyriadPro-Regular'" font-size="12">b. 1990</tspan></text>
<rect x="309.435" y="111.524" fill="none" width="44.348" height="32.174"/>
<text transform="matrix(1 0 0 1 309.4351 120.0444)"><tspan x="0" y="0" font-family="'MyriadPro-Regular'" font-size="12">Gautam, </tspan><tspan x="0" y="14.4" font-family="'MyriadPro-Regular'" font-size="12">b.2015</tspan></text>
<rect x="352.261" y="153.785" fill="none" width="44.348" height="28.695"/>
<text transform="matrix(1 0 0 1 352.2612 162.3047)"><tspan x="0" y="0" font-family="'MyriadPro-Regular'" font-size="12">Carrie,</tspan><tspan x="0" y="14.4" font-family="'MyriadPro-Regular'" font-size="12">b. 2018</tspan></text>
<rect x="404.609" y="281.22" fill="none" width="44.349" height="28.695"/>
<text transform="matrix(1 0 0 1 404.6094 289.7402)"><tspan x="0" y="0" font-family="'MyriadPro-Regular'" font-size="12">Calvin,</tspan><tspan x="0" y="14.4" font-family="'MyriadPro-Regular'" font-size="12">b. 2021</tspan></text>
<line fill="none" stroke="#BCBEC0" stroke-width="2" stroke-miterlimit="10" x1="1" y1="27.263" x2="1" y2="374.742"/>
<line fill="none" stroke="#BCBEC0" stroke-width="2" stroke-miterlimit="10" x1="694" y1="27.263" x2="694" y2="374.742"/>
<line fill="none" stroke="#BCBEC0" stroke-width="2" stroke-miterlimit="10" x1="595" y1="27.263" x2="595" y2="374.742"/>
<line fill="none" stroke="#BCBEC0" stroke-width="2" stroke-miterlimit="10" x1="496" y1="27.263" x2="496" y2="374.742"/>
<line fill="none" stroke="#BCBEC0" stroke-width="2" stroke-miterlimit="10" x1="397" y1="27.263" x2="397" y2="374.742"/>
<line fill="none" stroke="#BCBEC0" stroke-width="2" stroke-miterlimit="10" x1="298" y1="27.263" x2="298" y2="374.742"/>
<line fill="none" stroke="#BCBEC0" stroke-width="2" stroke-miterlimit="10" x1="199" y1="27.263" x2="199" y2="374.742"/>
<line fill="none" stroke="#BCBEC0" stroke-width="2" stroke-miterlimit="10" x1="100" y1="27.263" x2="100" y2="374.742"/>
<line fill="none" stroke="#BCBEC0" stroke-width="2" stroke-miterlimit="10" x1="793" y1="27.263" x2="793" y2="374.742"/>
<rect x="664.086" y="193.437" fill="none" width="59.827" height="33.739"/>
<text transform="matrix(1 0 0 1 664.0859 201.957)"><tspan x="0" y="0" font-family="'MyriadPro-Regular'" font-size="12">Francesca, </tspan><tspan x="0" y="14.4" font-family="'MyriadPro-Regular'" font-size="12">b. 2050</tspan></text>
<rect x="360.26" y="238.132" fill="none" width="44.349" height="28.695"/>
<text transform="matrix(1 0 0 1 360.2607 246.6523)"><tspan x="0" y="0" font-family="'MyriadPro-Regular'" font-size="12">Amelia, </tspan><tspan x="0" y="14.4" font-family="'MyriadPro-Regular'" font-size="12">b. 2019</tspan></text>
<rect x="321.956" y="46.741" fill="none" width="44.348" height="32.174"/>
<text transform="matrix(1 0 0 1 321.9561 55.2607)"><tspan x="0" y="0" font-family="'MyriadPro-Regular'" font-size="12">Married</tspan><tspan x="0" y="14.4" font-family="'MyriadPro-Regular'" font-size="12">2015</tspan></text>
<rect x="360.261" y="111.524" fill="none" width="44.348" height="32.174"/>
<text transform="matrix(1 0 0 1 360.2612 120.0444)"><tspan x="0" y="0" font-family="'MyriadPro-Regular'" font-size="12">Adopted</tspan><tspan x="0" y="14.4" font-family="'MyriadPro-Regular'" font-size="12">2018</tspan></text>
<rect x="360.261" y="27.263" opacity="0.2" width="73.87" height="333.565"/>
<text transform="matrix(1 0 0 1 366.3042 341.6978)"><tspan x="0" y="0" font-family="'MyriadPro-Regular'" font-size="12">Tech Bubble</tspan><tspan x="0" y="14.4" font-family="'MyriadPro-Regular'" font-size="12">Burst</tspan></text>
<rect x="653.14" y="131.872" fill="none" width="44.349" height="32.174"/>
<text transform="matrix(1 0 0 1 653.1396 140.3916)"><tspan x="0" y="0" font-family="'MyriadPro-Regular'" font-size="12">Married</tspan><tspan x="0" y="14.4" font-family="'MyriadPro-Regular'" font-size="12">2049</tspan></text>
<rect x="387.217" y="46.741" fill="none" width="79.133" height="32.174"/>
<text transform="matrix(1 0 0 1 387.2173 55.2607)"><tspan x="0" y="0" font-family="'MyriadPro-Regular'" font-size="12">Moved to </tspan><tspan x="0" y="14.4" font-family="'MyriadPro-Regular'" font-size="12">Cleveland 2020</tspan></text>
<rect x="536.131" y="111.524" fill="none" width="58.869" height="32.174"/>
<text transform="matrix(1 0 0 1 536.1309 120.0444)"><tspan x="0" y="0" font-family="'MyriadPro-Regular'" font-size="12">Graduated </tspan><tspan x="0" y="14.4" font-family="'MyriadPro-Regular'" font-size="12">M.S. 2038</tspan></text>
<rect x="595" y="281.22" fill="none" width="80.193" height="45.695"/>
<text transform="matrix(1 0 0 1 595 289.7402)"><tspan x="0" y="0" font-family="'MyriadPro-Regular'" font-size="12">Graduated </tspan><tspan x="0" y="14.4" font-family="'MyriadPro-Regular'" font-size="12">2041, moved to </tspan><tspan x="0" y="28.8" font-family="'MyriadPro-Regular'" font-size="12">St. Louis</tspan></text>
<rect x="552.543" y="153.785" fill="none" width="58.869" height="32.174"/>
<text transform="matrix(1 0 0 1 552.543 162.3047)"><tspan x="0" y="0" font-family="'MyriadPro-Regular'" font-size="12">Graduated </tspan><tspan x="0" y="14.4" font-family="'MyriadPro-Regular'" font-size="12">B.S. 2039</tspan></text>
<rect x="265.358" y="27.523" fill="none" width="44.349" height="32.174"/>
<text transform="matrix(1 0 0 1 265.3579 36.0435)"><tspan x="0" y="0" font-family="'MyriadPro-Regular'" font-size="12">B.S. </tspan><tspan x="0" y="14.4" font-family="'MyriadPro-Regular'" font-size="12">2009</tspan></text>
<rect x="293.271" y="70.306" fill="none" width="44.349" height="32.173"/>
<text transform="matrix(1 0 0 1 293.2705 78.8262)"><tspan x="0" y="0" font-family="'MyriadPro-Regular'" font-size="12">B.S. </tspan><tspan x="0" y="14.4" font-family="'MyriadPro-Regular'" font-size="12">2011</tspan></text>
</svg>
